<svg width="28" height="30" viewBox="0 0 28 30" fill="none" xmlns="http://www.w3.org/2000/svg">
<g filter="url(#filter0_d_365_65)">
<path d="M22 2H6C4.9 2 4 2.9 4 4V20C4 21.1 4.9 22 6 22H22C23.1 22 24 21.1 24 20V4C24 2.9 23.1 2 22 2ZM10 20H6V16H10V20ZM10 14H6V10H10V14ZM10 8H6V4H10V8ZM16 20H12V16H16V20ZM16 14H12V10H16V14ZM16 8H12V4H16V8ZM22 20H18V16H22V20ZM22 14H18V10H22V14ZM22 8H18V4H22V8Z" fill="#A1A4B1"/>
</g>
<defs>
<filter id="filter0_d_365_65" x="-2" y="0" width="32" height="32" filterUnits="userSpaceOnUse" color-interpolation-filters="sRGB">
<feFlood flood-opacity="0" result="BackgroundImageFix"/>
<feColorMatrix in="SourceAlpha" type="matrix" values="0 0 0 0 0 0 0 0 0 0 0 0 0 0 0 0 0 0 127 0" result="hardAlpha"/>
<feOffset dy="4"/>
<feGaussianBlur stdDeviation="2"/>
<feComposite in2="hardAlpha" operator="out"/>
<feColorMatrix type="matrix" values="0 0 0 0 0 0 0 0 0 0 0 0 0 0 0 0 0 0 0.25 0"/>
<feBlend mode="normal" in2="BackgroundImageFix" result="effect1_dropShadow_365_65"/>
<feBlend mode="normal" in="SourceGraphic" in2="effect1_dropShadow_365_65" result="shape"/>
</filter>
</defs>
</svg>
